<svg viewBox="0 0 24 24" width="39" height="39" fill="#616161" xmlns="http://www.w3.org/2000/svg">
  <path d="M12 .5C5.65.5.5 5.65.5 12c0 5.1 3.29 9.42 7.86 10.95.57.1.78-.25.78-.55v-2.02c-3.2.7-3.88-1.54-3.88-1.54-.53-1.34-1.3-1.7-1.3-1.7-1.06-.73.08-.72.08-.72 1.17.08 1.8 1.2 1.8 1.2 1.04 1.78 2.73 1.27 3.4.97.1-.76.4-1.27.72-1.56-2.55-.29-5.23-1.28-5.23-5.7 0-1.26.45-2.3 1.2-3.12-.12-.3-.52-1.52.12-3.16 0 0 .98-.31 3.2 1.19a11.1 11.1 0 0 1 5.82 0c2.22-1.5 3.2-1.19 3.2-1.19.64 1.64.24 2.86.12 3.16.75.82 1.2 1.86 1.2 3.12 0 4.43-2.69 5.4-5.25 5.68.41.36.77 1.08.77 2.18v3.23c0 .3.21.66.79.55A11.52 11.52 0 0 0 23.5 12C23.5 5.65 18.35.5 12 .5z"/>
</svg>
